<svg width="900" height="214" viewBox="0 0 900 214" fill="none" xmlns="http://www.w3.org/2000/svg">
<g clip-path="url(#clip0_134_14)">
<path d="M690.226 167.077L690.164 129.369M690.164 129.369L689.977 62.0055M690.164 129.369L728.122 91.0359M690.164 129.369L728.309 167.202M474.028 129.868C474.211 121.781 471.86 113.518 467.098 106.831C460.235 97.1946 449.129 90.6156 436.944 90.4741C436.131 90.4741 435.327 90.4741 434.509 90.5364C429.692 90.834 425.027 91.5033 420.899 93.2209C393.751 104.517 388.94 142.216 411.846 159.273C431.683 174.044 460.537 168.013 470.532 145.476C472.644 140.713 474.028 134.709 474.028 129.868ZM474.028 129.868V61.6934M657.202 94.9691C651.581 91.3369 645.023 90.0265 638.535 90.037C637.832 90.037 637.108 90.0722 636.475 90.0994C617.718 90.9061 600.327 104.161 600.327 129.868C600.327 160.262 632.916 176.666 657.265 162.332M766.644 159.023C785.827 142.591 824.267 109.64 824.267 109.64C824.267 109.64 822.866 106.989 821.958 105.77C814.201 95.3599 802.35 90.1619 789.868 90.1618C759.019 90.1618 735.895 130.052 766.644 159.023ZM766.644 159.023C768.773 161.029 771.697 162.6 774.947 163.955C786.23 168.659 801.676 168.274 810.033 162.082M892.249 91.0359C882.776 91.0613 873.551 94.3789 866.714 100.775C855.933 109.674 853.591 120.911 853.729 135.112L854.041 167.389M537.079 90.2868C536.204 90.3027 535.335 90.3954 534.457 90.4116C511.064 90.8415 494.198 115.138 499.308 137.672C504.287 159.63 528.276 172.633 549.003 165.454C573.139 159.125 582.983 128.733 569.73 108.204C562.482 96.9771 550.197 90.0374 537.079 90.2868Z" stroke="#17B5EB" stroke-width="10.5" stroke-linecap="round" stroke-linejoin="round"/>
<path d="M217.605 67.4735H251.341V101.961H268.4C276.277 101.961 284.38 100.557 291.84 98.0297C295.505 96.7867 299.62 95.057 303.236 92.8817C298.473 86.6637 296.042 78.8125 295.326 71.0735C294.354 60.5476 296.477 46.8467 303.601 38.6083L307.148 34.5065L311.374 37.9035C322.013 46.4516 330.961 58.3959 332.538 72.0123C345.35 68.2439 360.391 69.1352 371.683 75.6526L376.316 78.3258L373.877 83.085C364.327 101.724 344.362 107.498 324.842 106.477C295.633 179.227 232.042 213.669 154.938 213.669C115.104 213.669 78.5563 198.778 57.7446 163.436C56.5244 161.24 55.4795 158.945 54.3713 156.69C47.3364 141.133 44.9998 124.09 46.5849 107.062L47.0606 101.961H75.9092V67.4742H109.646V33.7375H177.119V0.000732422H217.604L217.605 67.4735Z" fill="#394D54"/>
<mask id="mask0_134_14" style="mask-type:luminance" maskUnits="userSpaceOnUse" x="51" y="2" width="318" height="207">
<path d="M112.131 2.95093V70.8198H79.6721V104.754H52.4962C52.3808 105.736 52.2874 106.721 52.1926 107.705C50.4942 126.193 53.7218 143.244 61.1373 157.823L63.6271 162.295C65.1193 164.976 66.86 167.493 68.6988 169.949C70.5353 172.402 71.1859 173.759 72.3412 175.389C91.9474 197.426 121.175 208.033 154.918 208.033C229.645 208.033 293.065 174.928 321.132 100.559C341.045 102.602 360.147 97.4957 368.852 80.5022C354.986 72.5 337.163 75.0649 326.896 80.2255L354.098 2.95093L247.869 70.8198H213.934V2.95093H112.131Z" fill="white"/>
</mask>
<g mask="url(#mask0_134_14)">
<path d="M182.743 5.62207H211.982V34.8618H182.743V5.62207Z" fill="#20C2EF"/>
<path d="M186.333 32.4249V8.05737ZM190.718 32.4249V8.05737ZM195.147 32.4249V8.05737ZM199.578 32.4249V8.05737ZM204.008 32.4249V8.05737ZM208.392 32.4249V8.05737Z" fill="black"/>
<path d="M186.333 32.4249V8.05737M190.718 32.4249V8.05737M195.147 32.4249V8.05737M199.578 32.4249V8.05737M204.008 32.4249V8.05737M208.392 32.4249V8.05737" stroke="#394D54" stroke-width="1.56"/>
<path d="M216.48 34.8604H245.718V5.6222H216.48V34.8604Z" fill="#00ACD3"/>
<path d="M220.07 8.05828V32.4258ZM224.454 8.05828V32.4258ZM228.883 8.05828V32.4258ZM233.315 8.05828V32.4258ZM237.745 8.05828V32.4258ZM242.129 8.05828V32.4258Z" fill="black"/>
<path d="M220.07 8.05828V32.4258M224.454 8.05828V32.4258M228.883 8.05828V32.4258M233.315 8.05828V32.4258M237.745 8.05828V32.4258M242.129 8.05828V32.4258" stroke="#394D54" stroke-width="1.56"/>
<path d="M47.7959 39.3596H77.0349V68.5978H47.7959V39.3596Z" fill="#00ACD3"/>
<path d="M47.7959 73.0955H77.0349V102.335H47.7959V73.0955Z" fill="#20C2EF"/>
<path d="M51.3861 66.1617V41.7942ZM55.7708 66.1617V41.7942ZM60.1997 66.1617V41.7942ZM64.6311 66.1617V41.7942ZM69.0616 66.1617V41.7942ZM73.4455 66.1617V41.7942Z" fill="black"/>
<path d="M51.3861 66.1617V41.7942M55.7708 66.1617V41.7942M60.1997 66.1617V41.7942M64.6311 66.1617V41.7942M69.0616 66.1617V41.7942M73.4455 66.1617V41.7942" stroke="#394D54" stroke-width="1.56"/>
<path d="M51.3861 99.8983V75.5308ZM55.7708 99.8983V75.5308ZM60.1997 99.8983V75.5308ZM64.6311 99.8983V75.5308ZM69.0616 99.8983V75.5308ZM73.4455 99.8983V75.5308Z" fill="black"/>
<path d="M51.3861 99.8983V75.5308M55.7708 99.8983V75.5308M60.1997 99.8983V75.5308M64.6311 99.8983V75.5308M69.0616 99.8983V75.5308M73.4455 99.8983V75.5308" stroke="#394D54" stroke-width="1.56"/>
<path d="M81.5326 102.334H110.772V73.0956H81.5326V102.334Z" fill="#00ACD3"/>
<path d="M81.5326 68.5979H110.772V39.3582H81.5326V68.5979Z" fill="#20C2EF"/>
<path d="M85.1228 75.5317V99.8992ZM89.5075 75.5317V99.8992ZM93.9365 75.5317V99.8992ZM98.3678 75.5317V99.8992ZM102.798 75.5317V99.8992ZM107.182 75.5317V99.8992Z" fill="black"/>
<path d="M85.1228 75.5317V99.8992M89.5075 75.5317V99.8992M93.9365 75.5317V99.8992M98.3678 75.5317V99.8992M102.798 75.5317V99.8992M107.182 75.5317V99.8992" stroke="#394D54" stroke-width="1.56"/>
<path d="M85.1228 41.7951V66.1626ZM89.5075 41.7951V66.1626ZM93.9365 41.7951V66.1626ZM98.3678 41.7951V66.1626ZM102.798 41.7951V66.1626ZM107.182 41.7951V66.1626Z" fill="black"/>
<path d="M85.1228 41.7951V66.1626M89.5075 41.7951V66.1626M93.9365 41.7951V66.1626M98.3678 41.7951V66.1626M102.798 41.7951V66.1626M107.182 41.7951V66.1626" stroke="#394D54" stroke-width="1.56"/>
<path d="M115.269 39.3596H144.508V68.5978H115.269V39.3596Z" fill="#00ACD3"/>
<path d="M115.269 73.0955H144.508V102.335H115.269V73.0955Z" fill="#20C2EF"/>
<path d="M118.86 66.1617V41.7942ZM123.244 66.1617V41.7942ZM127.673 66.1617V41.7942ZM132.105 66.1617V41.7942ZM136.535 66.1617V41.7942ZM140.919 66.1617V41.7942Z" fill="black"/>
<path d="M118.86 66.1617V41.7942M123.244 66.1617V41.7942M127.673 66.1617V41.7942M132.105 66.1617V41.7942M136.535 66.1617V41.7942M140.919 66.1617V41.7942" stroke="#394D54" stroke-width="1.56"/>
<path d="M118.86 99.8983V75.5308ZM123.244 99.8983V75.5308ZM127.673 99.8983V75.5308ZM132.105 99.8983V75.5308ZM136.535 99.8983V75.5308ZM140.919 99.8983V75.5308Z" fill="black"/>
<path d="M118.86 99.8983V75.5308M123.244 99.8983V75.5308M127.673 99.8983V75.5308M132.105 99.8983V75.5308M136.535 99.8983V75.5308M140.919 99.8983V75.5308" stroke="#394D54" stroke-width="1.56"/>
<path d="M149.006 102.334H178.245V73.0956H149.006V102.334Z" fill="#00ACD3"/>
<path d="M149.006 68.5979H178.245V39.3582H149.006V68.5979Z" fill="#20C2EF"/>
<path d="M152.596 75.5317V99.8992ZM156.981 75.5317V99.8992ZM161.41 75.5317V99.8992ZM165.841 75.5317V99.8992ZM170.272 75.5317V99.8992ZM174.656 75.5317V99.8992Z" fill="black"/>
<path d="M152.596 75.5317V99.8992M156.981 75.5317V99.8992M161.41 75.5317V99.8992M165.841 75.5317V99.8992M170.272 75.5317V99.8992M174.656 75.5317V99.8992" stroke="#394D54" stroke-width="1.56"/>
<path d="M152.596 41.7951V66.1626ZM156.981 41.7951V66.1626ZM161.41 41.7951V66.1626ZM165.841 41.7951V66.1626ZM170.272 41.7951V66.1626ZM174.656 41.7951V66.1626Z" fill="black"/>
<path d="M152.596 41.7951V66.1626M156.981 41.7951V66.1626M161.41 41.7951V66.1626M165.841 41.7951V66.1626M170.272 41.7951V66.1626M174.656 41.7951V66.1626" stroke="#394D54" stroke-width="1.56"/>
<path d="M182.743 39.3596H211.982V68.5978H182.743V39.3596Z" fill="#00ACD3"/>
<path d="M182.743 73.0955H211.982V102.335H182.743V73.0955Z" fill="#20C2EF"/>
<path d="M186.333 66.1617V41.7942ZM190.718 66.1617V41.7942ZM195.147 66.1617V41.7942ZM199.578 66.1617V41.7942ZM204.008 66.1617V41.7942ZM208.392 66.1617V41.7942Z" fill="black"/>
<path d="M186.333 66.1617V41.7942M190.718 66.1617V41.7942M195.147 66.1617V41.7942M199.578 66.1617V41.7942M204.008 66.1617V41.7942M208.392 66.1617V41.7942" stroke="#394D54" stroke-width="1.56"/>
<path d="M186.333 99.8983V75.5308ZM190.718 99.8983V75.5308ZM195.147 99.8983V75.5308ZM199.578 99.8983V75.5308ZM204.008 99.8983V75.5308ZM208.392 99.8983V75.5308Z" fill="black"/>
<path d="M186.333 99.8983V75.5308M190.718 99.8983V75.5308M195.147 99.8983V75.5308M199.578 99.8983V75.5308M204.008 99.8983V75.5308M208.392 99.8983V75.5308" stroke="#394D54" stroke-width="1.56"/>
<path d="M216.48 102.334H245.718V73.0956H216.48V102.334Z" fill="#00ACD3"/>
<path d="M216.48 68.5979H245.718V39.3582H216.48V68.5979Z" fill="#20C2EF"/>
<path d="M220.07 75.5317V99.8992ZM224.454 75.5317V99.8992ZM228.883 75.5317V99.8992ZM233.315 75.5317V99.8992ZM237.745 75.5317V99.8992ZM242.129 75.5317V99.8992Z" fill="black"/>
<path d="M220.07 75.5317V99.8992M224.454 75.5317V99.8992M228.883 75.5317V99.8992M233.315 75.5317V99.8992M237.745 75.5317V99.8992M242.129 75.5317V99.8992" stroke="#394D54" stroke-width="1.56"/>
<path d="M220.07 41.7951V66.1626ZM224.454 41.7951V66.1626ZM228.883 41.7951V66.1626ZM233.315 41.7951V66.1626ZM237.745 41.7951V66.1626ZM242.129 41.7951V66.1626Z" fill="black"/>
<path d="M220.07 41.7951V66.1626M224.454 41.7951V66.1626M228.883 41.7951V66.1626M233.315 41.7951V66.1626M237.745 41.7951V66.1626M242.129 41.7951V66.1626" stroke="#394D54" stroke-width="1.56"/>
</g>
<mask id="mask1_134_14" style="mask-type:luminance" maskUnits="userSpaceOnUse" x="51" y="2" width="318" height="207">
<path d="M112.131 2.95093V70.8198H79.6721V104.754H52.4962C52.3808 105.736 52.2874 106.721 52.1926 107.705C50.4942 126.193 53.7218 143.244 61.1373 157.823L63.6271 162.295C65.1193 164.976 66.86 167.493 68.6988 169.949C70.5353 172.402 71.1859 173.759 72.3412 175.389C91.9474 197.426 121.175 208.033 154.918 208.033C229.645 208.033 293.065 174.928 321.132 100.559C341.045 102.602 360.147 97.4957 368.852 80.5022C354.986 72.5 337.163 75.0649 326.896 80.2255L354.098 2.95093L247.869 70.8198H213.934V2.95093H112.131Z" fill="white"/>
</mask>
<g mask="url(#mask1_134_14)">
<path d="M326.907 80.2325C329.169 62.6526 316.013 48.8435 307.853 42.2874C298.451 53.1578 296.99 81.6477 311.741 93.6426C303.509 100.955 286.161 107.583 268.4 107.583H50.1639C48.4366 126.124 50.1639 215.41 50.1639 215.41H370.328L368.872 80.5222C355.005 72.52 337.174 75.0718 326.907 80.2325Z" fill="#17B5EB"/>
</g>
<mask id="mask2_134_14" style="mask-type:luminance" maskUnits="userSpaceOnUse" x="51" y="2" width="318" height="207">
<path d="M112.131 2.95093V70.8198H79.6721V104.754H52.4962C52.3808 105.736 52.2874 106.721 52.1926 107.705C50.4942 126.193 53.7218 143.244 61.1373 157.823L63.6271 162.295C65.1193 164.976 66.86 167.493 68.6988 169.949C70.5353 172.402 71.1859 173.759 72.3412 175.389C91.9474 197.426 121.175 208.033 154.918 208.033C229.645 208.033 293.065 174.928 321.132 100.559C341.045 102.602 360.147 97.4957 368.852 80.5022C354.986 72.5 337.163 75.0649 326.896 80.2255L354.098 2.95093L247.869 70.8198H213.934V2.95093H112.131Z" fill="white"/>
</mask>
<g mask="url(#mask2_134_14)">
<path d="M50.1639 131.312V215.41H370.328V131.312" fill="black" fill-opacity="0.17"/>
</g>
<mask id="mask3_134_14" style="mask-type:luminance" maskUnits="userSpaceOnUse" x="51" y="2" width="318" height="207">
<path d="M112.131 2.95093V70.8198H79.6721V104.754H52.4962C52.3808 105.736 52.2874 106.721 52.1926 107.705C50.4942 126.193 53.7218 143.244 61.1373 157.823L63.6271 162.295C65.1193 164.976 66.86 167.493 68.6988 169.949C70.5353 172.402 71.1859 173.759 72.3412 175.389C91.9474 197.426 121.175 208.033 154.918 208.033C229.645 208.033 293.065 174.928 321.132 100.559C341.045 102.602 360.147 97.4957 368.852 80.5022C354.986 72.5 337.163 75.0649 326.896 80.2255L354.098 2.95093L247.869 70.8198H213.934V2.95093H112.131Z" fill="white"/>
</mask>
<g mask="url(#mask3_134_14)">
<path d="M164.121 207.871C144.144 198.391 133.179 185.505 127.078 171.436L66.3934 174.098L97.3771 215.41L164.121 207.871Z" fill="#D4EDF1"/>
</g>
<mask id="mask4_134_14" style="mask-type:luminance" maskUnits="userSpaceOnUse" x="51" y="2" width="318" height="207">
<path d="M112.131 2.95093V70.8198H79.6721V104.754H52.4962C52.3808 105.736 52.2874 106.721 52.1926 107.705C50.4942 126.193 53.7218 143.244 61.1373 157.823L63.6271 162.295C65.1193 164.976 66.86 167.493 68.6988 169.949C70.5353 172.402 71.1859 173.759 72.3412 175.389C91.9474 197.426 121.175 208.033 154.918 208.033C229.645 208.033 293.065 174.928 321.132 100.559C341.045 102.602 360.147 97.4957 368.852 80.5022C354.986 72.5 337.163 75.0649 326.896 80.2255L354.098 2.95093L247.869 70.8198H213.934V2.95093H112.131Z" fill="white"/>
</mask>
<g mask="url(#mask4_134_14)">
<path d="M328.279 79.5799V79.626C297.5 119.299 253.353 153.955 205.958 172.162C163.68 188.403 126.819 188.481 101.388 175.435C98.6499 173.889 95.9652 172.173 93.2736 170.548C74.6293 157.517 64.1276 135.962 65.0103 107.567H50.1639V215.41H370.328V73.7705H333.443L328.279 79.5799Z" fill="black" fill-opacity="0.085"/>
</g>
<path d="M67.3156 172.669C88.215 173.813 110.519 174.018 129.974 167.92" stroke="#394D54" stroke-width="3.4" stroke-linecap="round"/>
<path d="M150.743 157.809C150.743 162.263 147.132 165.874 142.678 165.874C138.223 165.874 134.611 162.263 134.611 157.809C134.611 153.354 138.223 149.742 142.678 149.742C147.132 149.742 150.743 153.354 150.743 157.809Z" fill="#D4EDF1"/>
<path d="M144.769 152.421C144.065 152.828 143.589 153.591 143.589 154.463C143.589 155.765 144.644 156.82 145.947 156.82C146.839 156.82 147.614 156.324 148.014 155.592C148.297 156.274 148.455 157.023 148.455 157.809C148.455 160.999 145.868 163.585 142.678 163.585C139.488 163.585 136.9 160.999 136.9 157.809C136.9 154.617 139.488 152.03 142.678 152.03C143.416 152.03 144.12 152.169 144.769 152.421Z" fill="#394D54"/>
<path d="M0 133.026H375.237C367.067 130.954 349.387 128.154 352.302 117.447C337.446 134.638 301.618 129.507 292.576 121.03C282.507 135.634 223.889 130.083 219.801 118.706C207.177 133.52 168.062 133.52 155.438 118.706C151.348 130.083 92.7313 135.634 82.6613 121.03C73.6193 129.507 37.7942 134.638 22.9365 117.447C25.8522 128.154 8.17202 130.954 0 133.026Z" fill="#394D54"/>
</g>
<defs>
<clipPath id="clip0_134_14">
<rect width="900" height="213.934" fill="white"/>
</clipPath>
</defs>
</svg>
