<svg width="1000" height="238" viewBox="0 0 1000 238" fill="none" xmlns="http://www.w3.org/2000/svg">
<g clip-path="url(#clip0_134_14)">
<path d="M766.918 185.641L766.849 143.743M766.849 143.743L766.641 68.8949M766.849 143.743L809.025 101.151M766.849 143.743L809.233 185.78M526.697 144.298C526.901 135.313 524.289 126.131 518.998 118.701C511.373 107.994 499.032 100.684 485.493 100.527C484.59 100.527 483.697 100.527 482.788 100.596C477.436 100.927 472.252 101.67 467.665 103.579C437.501 116.13 432.156 158.018 457.607 176.97C479.648 193.382 511.708 186.681 522.813 161.64C525.159 156.348 526.697 149.677 526.697 144.298ZM526.697 144.298V68.5481M730.225 105.521C723.979 101.485 716.692 100.029 709.484 100.041C708.702 100.041 707.898 100.08 707.194 100.11C686.354 101.007 667.03 115.734 667.03 144.298C667.03 178.069 703.24 196.295 730.294 180.369M851.826 176.692C873.141 158.434 915.853 121.823 915.853 121.823C915.853 121.823 914.296 118.876 913.286 117.522C904.667 105.955 891.5 100.18 877.631 100.18C843.354 100.18 817.661 144.502 851.826 176.692ZM851.826 176.692C854.192 178.921 857.441 180.667 861.052 182.172C873.589 187.399 890.751 186.971 900.037 180.091M991.387 101.151C980.863 101.179 970.612 104.865 963.016 111.972C951.036 121.86 948.435 134.345 948.587 150.125L948.934 185.988M596.754 100.319C595.782 100.336 594.816 100.439 593.841 100.457C567.849 100.935 549.109 127.931 554.787 152.969C560.319 177.367 586.973 191.814 610.003 183.837C636.821 176.806 647.758 143.036 633.033 120.227C624.98 107.752 611.33 100.042 596.754 100.319Z" stroke="#1AA7D8" stroke-width="10.5" stroke-linecap="round" stroke-linejoin="round"/>
<path d="M241.783 74.9705H279.268V113.29H298.222C306.974 113.29 315.977 111.73 324.266 108.922C328.339 107.541 332.911 105.619 336.928 103.202C331.637 96.293 328.935 87.5694 328.14 78.9705C327.06 67.275 329.419 52.0518 337.335 42.898L341.275 38.3405L345.971 42.1149C357.793 51.6128 367.735 64.8843 369.487 80.0136C383.722 75.8265 400.434 76.8168 412.981 84.0584L418.129 87.0286L415.419 92.3166C404.808 113.027 382.624 119.442 360.936 118.307C328.481 199.141 257.824 237.41 172.153 237.41C127.893 237.41 87.2848 220.864 64.1607 181.595C62.8049 179.156 61.6439 176.605 60.4126 174.1C52.596 156.814 49.9998 137.878 51.761 118.958L52.2896 113.29H84.3436V74.9712H121.829V37.486H196.799V0.000732422H241.782L241.783 74.9705Z" fill="#394D54"/>
<mask id="mask0_134_14" style="mask-type:luminance" maskUnits="userSpaceOnUse" x="57" y="3" width="353" height="229">
<path d="M124.59 3.27881V78.6886H88.5246V116.394H58.3291C58.2009 117.485 58.0971 118.579 57.9918 119.672C56.1047 140.215 59.6909 159.16 67.9303 175.359L70.6967 180.328C72.3548 183.306 74.2889 186.103 76.332 188.832C78.3725 191.557 79.0954 193.066 80.3791 194.877C102.164 219.362 134.638 231.148 172.131 231.148C255.161 231.148 325.628 194.364 356.814 111.732C378.939 114.002 400.163 108.329 409.836 89.4468C394.429 80.5556 374.626 83.4054 363.217 89.1395L393.443 3.27881L275.41 78.6886H237.705V3.27881H124.59Z" fill="white"/>
</mask>
<g mask="url(#mask0_134_14)">
<path d="M203.048 6.24683H235.535V38.7354H203.048V6.24683Z" fill="#20C2EF"/>
<path d="M207.037 36.0276V8.95264ZM211.909 36.0276V8.95264ZM216.83 36.0276V8.95264ZM221.753 36.0276V8.95264ZM226.676 36.0276V8.95264ZM231.547 36.0276V8.95264Z" fill="black"/>
<path d="M207.037 36.0276V8.95264M211.909 36.0276V8.95264M216.83 36.0276V8.95264M221.753 36.0276V8.95264M226.676 36.0276V8.95264M231.547 36.0276V8.95264" stroke="#394D54" stroke-width="1.56"/>
<path d="M240.533 38.7339H273.021V6.24705H240.533V38.7339Z" fill="#00ACD3"/>
<path d="M244.522 8.95381V36.0288ZM249.394 8.95381V36.0288ZM254.315 8.95381V36.0288ZM259.238 8.95381V36.0288ZM264.161 8.95381V36.0288ZM269.032 8.95381V36.0288Z" fill="black"/>
<path d="M244.522 8.95381V36.0288M249.394 8.95381V36.0288M254.315 8.95381V36.0288M259.238 8.95381V36.0288M264.161 8.95381V36.0288M269.032 8.95381V36.0288" stroke="#394D54" stroke-width="1.56"/>
<path d="M53.1066 43.7329H85.5943V76.2197H53.1066V43.7329Z" fill="#00ACD3"/>
<path d="M53.1066 81.2173H85.5943V113.706H53.1066V81.2173Z" fill="#20C2EF"/>
<path d="M57.0957 73.513V46.438ZM61.9676 73.513V46.438ZM66.8886 73.513V46.438ZM71.8123 73.513V46.438ZM76.7351 73.513V46.438ZM81.6061 73.513V46.438Z" fill="black"/>
<path d="M57.0957 73.513V46.438M61.9676 73.513V46.438M66.8886 73.513V46.438M71.8123 73.513V46.438M76.7351 73.513V46.438M81.6061 73.513V46.438" stroke="#394D54" stroke-width="1.56"/>
<path d="M57.0957 110.998V83.9231ZM61.9676 110.998V83.9231ZM66.8886 110.998V83.9231ZM71.8123 110.998V83.9231ZM76.7351 110.998V83.9231ZM81.6061 110.998V83.9231Z" fill="black"/>
<path d="M57.0957 110.998V83.9231M61.9676 110.998V83.9231M66.8886 110.998V83.9231M71.8123 110.998V83.9231M76.7351 110.998V83.9231M81.6061 110.998V83.9231" stroke="#394D54" stroke-width="1.56"/>
<path d="M90.5918 113.704H123.08V81.2175H90.5918V113.704Z" fill="#00ACD3"/>
<path d="M90.5918 76.22H123.08V43.7314H90.5918V76.22Z" fill="#20C2EF"/>
<path d="M94.5809 83.9243V110.999ZM99.4528 83.9243V110.999ZM104.374 83.9243V110.999ZM109.298 83.9243V110.999ZM114.22 83.9243V110.999ZM119.091 83.9243V110.999Z" fill="black"/>
<path d="M94.5809 83.9243V110.999M99.4528 83.9243V110.999M104.374 83.9243V110.999M109.298 83.9243V110.999M114.22 83.9243V110.999M119.091 83.9243V110.999" stroke="#394D54" stroke-width="1.56"/>
<path d="M94.5809 46.4392V73.5142ZM99.4528 46.4392V73.5142ZM104.374 46.4392V73.5142ZM109.298 46.4392V73.5142ZM114.22 46.4392V73.5142ZM119.091 46.4392V73.5142Z" fill="black"/>
<path d="M94.5809 46.4392V73.5142M99.4528 46.4392V73.5142M104.374 46.4392V73.5142M109.298 46.4392V73.5142M114.22 46.4392V73.5142M119.091 46.4392V73.5142" stroke="#394D54" stroke-width="1.56"/>
<path d="M128.077 43.7329H160.565V76.2197H128.077V43.7329Z" fill="#00ACD3"/>
<path d="M128.077 81.2173H160.565V113.706H128.077V81.2173Z" fill="#20C2EF"/>
<path d="M132.066 73.513V46.438ZM136.938 73.513V46.438ZM141.859 73.513V46.438ZM146.783 73.513V46.438ZM151.706 73.513V46.438ZM156.577 73.513V46.438Z" fill="black"/>
<path d="M132.066 73.513V46.438M136.938 73.513V46.438M141.859 73.513V46.438M146.783 73.513V46.438M151.706 73.513V46.438M156.577 73.513V46.438" stroke="#394D54" stroke-width="1.56"/>
<path d="M132.066 110.998V83.9231ZM136.938 110.998V83.9231ZM141.859 110.998V83.9231ZM146.783 110.998V83.9231ZM151.706 110.998V83.9231ZM156.577 110.998V83.9231Z" fill="black"/>
<path d="M132.066 110.998V83.9231M136.938 110.998V83.9231M141.859 110.998V83.9231M146.783 110.998V83.9231M151.706 110.998V83.9231M156.577 110.998V83.9231" stroke="#394D54" stroke-width="1.56"/>
<path d="M165.562 113.704H198.05V81.2175H165.562V113.704Z" fill="#00ACD3"/>
<path d="M165.562 76.22H198.05V43.7314H165.562V76.22Z" fill="#20C2EF"/>
<path d="M169.551 83.9243V110.999ZM174.423 83.9243V110.999ZM179.344 83.9243V110.999ZM184.268 83.9243V110.999ZM189.191 83.9243V110.999ZM194.062 83.9243V110.999Z" fill="black"/>
<path d="M169.551 83.9243V110.999M174.423 83.9243V110.999M179.344 83.9243V110.999M184.268 83.9243V110.999M189.191 83.9243V110.999M194.062 83.9243V110.999" stroke="#394D54" stroke-width="1.56"/>
<path d="M169.551 46.4392V73.5142ZM174.423 46.4392V73.5142ZM179.344 46.4392V73.5142ZM184.268 46.4392V73.5142ZM189.191 46.4392V73.5142ZM194.062 46.4392V73.5142Z" fill="black"/>
<path d="M169.551 46.4392V73.5142M174.423 46.4392V73.5142M179.344 46.4392V73.5142M184.268 46.4392V73.5142M189.191 46.4392V73.5142M194.062 46.4392V73.5142" stroke="#394D54" stroke-width="1.56"/>
<path d="M203.048 43.7329H235.535V76.2197H203.048V43.7329Z" fill="#00ACD3"/>
<path d="M203.048 81.2173H235.535V113.706H203.048V81.2173Z" fill="#20C2EF"/>
<path d="M207.037 73.513V46.438ZM211.909 73.513V46.438ZM216.83 73.513V46.438ZM221.753 73.513V46.438ZM226.676 73.513V46.438ZM231.547 73.513V46.438Z" fill="black"/>
<path d="M207.037 73.513V46.438M211.909 73.513V46.438M216.83 73.513V46.438M221.753 73.513V46.438M226.676 73.513V46.438M231.547 73.513V46.438" stroke="#394D54" stroke-width="1.56"/>
<path d="M207.037 110.998V83.9231ZM211.909 110.998V83.9231ZM216.83 110.998V83.9231ZM221.753 110.998V83.9231ZM226.676 110.998V83.9231ZM231.547 110.998V83.9231Z" fill="black"/>
<path d="M207.037 110.998V83.9231M211.909 110.998V83.9231M216.83 110.998V83.9231M221.753 110.998V83.9231M226.676 110.998V83.9231M231.547 110.998V83.9231" stroke="#394D54" stroke-width="1.56"/>
<path d="M240.533 113.704H273.021V81.2175H240.533V113.704Z" fill="#00ACD3"/>
<path d="M240.533 76.22H273.021V43.7314H240.533V76.22Z" fill="#20C2EF"/>
<path d="M244.522 83.9243V110.999ZM249.394 83.9243V110.999ZM254.315 83.9243V110.999ZM259.238 83.9243V110.999ZM264.161 83.9243V110.999ZM269.032 83.9243V110.999Z" fill="black"/>
<path d="M244.522 83.9243V110.999M249.394 83.9243V110.999M254.315 83.9243V110.999M259.238 83.9243V110.999M264.161 83.9243V110.999M269.032 83.9243V110.999" stroke="#394D54" stroke-width="1.56"/>
<path d="M244.522 46.4392V73.5142ZM249.394 46.4392V73.5142ZM254.315 46.4392V73.5142ZM259.238 46.4392V73.5142ZM264.161 46.4392V73.5142ZM269.032 46.4392V73.5142Z" fill="black"/>
<path d="M244.522 46.4392V73.5142M249.394 46.4392V73.5142M254.315 46.4392V73.5142M259.238 46.4392V73.5142M264.161 46.4392V73.5142M269.032 46.4392V73.5142" stroke="#394D54" stroke-width="1.56"/>
</g>
<mask id="mask1_134_14" style="mask-type:luminance" maskUnits="userSpaceOnUse" x="57" y="3" width="353" height="229">
<path d="M124.59 3.27881V78.6886H88.5246V116.394H58.3291C58.2009 117.485 58.0971 118.579 57.9918 119.672C56.1047 140.215 59.6909 159.16 67.9303 175.359L70.6967 180.328C72.3548 183.306 74.2889 186.103 76.332 188.832C78.3725 191.557 79.0954 193.066 80.3791 194.877C102.164 219.362 134.638 231.148 172.131 231.148C255.161 231.148 325.628 194.364 356.814 111.732C378.939 114.002 400.163 108.329 409.836 89.4468C394.429 80.5556 374.626 83.4054 363.217 89.1395L393.443 3.27881L275.41 78.6886H237.705V3.27881H124.59Z" fill="white"/>
</mask>
<g mask="url(#mask1_134_14)">
<path d="M363.23 89.1471C365.743 69.6139 351.125 54.2704 342.059 46.9858C331.612 59.0641 329.989 90.7195 346.379 104.047C337.232 112.172 317.957 119.536 298.222 119.536H55.7377C53.8184 140.138 55.7377 239.344 55.7377 239.344H411.475L409.858 89.469C394.451 80.5777 374.638 83.413 363.23 89.1471Z" fill="#17B5EB"/>
</g>
<mask id="mask2_134_14" style="mask-type:luminance" maskUnits="userSpaceOnUse" x="57" y="3" width="353" height="229">
<path d="M124.59 3.27881V78.6886H88.5246V116.394H58.3291C58.2009 117.485 58.0971 118.579 57.9918 119.672C56.1047 140.215 59.6909 159.16 67.9303 175.359L70.6967 180.328C72.3548 183.306 74.2889 186.103 76.332 188.832C78.3725 191.557 79.0954 193.066 80.3791 194.877C102.164 219.362 134.638 231.148 172.131 231.148C255.161 231.148 325.628 194.364 356.814 111.732C378.939 114.002 400.163 108.329 409.836 89.4468C394.429 80.5556 374.626 83.4054 363.217 89.1395L393.443 3.27881L275.41 78.6886H237.705V3.27881H124.59Z" fill="white"/>
</mask>
<g mask="url(#mask2_134_14)">
<path d="M55.7377 145.902V239.344H411.475V145.902" fill="black" fill-opacity="0.17"/>
</g>
<mask id="mask3_134_14" style="mask-type:luminance" maskUnits="userSpaceOnUse" x="57" y="3" width="353" height="229">
<path d="M124.59 3.27881V78.6886H88.5246V116.394H58.3291C58.2009 117.485 58.0971 118.579 57.9918 119.672C56.1047 140.215 59.6909 159.16 67.9303 175.359L70.6967 180.328C72.3548 183.306 74.2889 186.103 76.332 188.832C78.3725 191.557 79.0954 193.066 80.3791 194.877C102.164 219.362 134.638 231.148 172.131 231.148C255.161 231.148 325.628 194.364 356.814 111.732C378.939 114.002 400.163 108.329 409.836 89.4468C394.429 80.5556 374.626 83.4054 363.217 89.1395L393.443 3.27881L275.41 78.6886H237.705V3.27881H124.59Z" fill="white"/>
</mask>
<g mask="url(#mask3_134_14)">
<path d="M182.356 230.967C160.16 220.434 147.977 206.116 141.198 190.485L73.7705 193.443L108.197 239.345L182.356 230.967Z" fill="#D4EDF1"/>
</g>
<mask id="mask4_134_14" style="mask-type:luminance" maskUnits="userSpaceOnUse" x="57" y="3" width="353" height="229">
<path d="M124.59 3.27881V78.6886H88.5246V116.394H58.3291C58.2009 117.485 58.0971 118.579 57.9918 119.672C56.1047 140.215 59.6909 159.16 67.9303 175.359L70.6967 180.328C72.3548 183.306 74.2889 186.103 76.332 188.832C78.3725 191.557 79.0954 193.066 80.3791 194.877C102.164 219.362 134.638 231.148 172.131 231.148C255.161 231.148 325.628 194.364 356.814 111.732C378.939 114.002 400.163 108.329 409.836 89.4468C394.429 80.5556 374.626 83.4054 363.217 89.1395L393.443 3.27881L275.41 78.6886H237.705V3.27881H124.59Z" fill="white"/>
</mask>
<g mask="url(#mask4_134_14)">
<path d="M364.754 88.4222V88.4734C330.555 132.554 281.503 171.061 228.842 191.291C181.867 209.336 140.91 209.423 112.654 194.928C109.611 193.21 106.628 191.303 103.637 189.498C82.9215 175.019 71.2529 151.069 72.2336 119.519H55.7377V239.344H411.475V81.9673H370.492L364.754 88.4222Z" fill="black" fill-opacity="0.085"/>
</g>
<path d="M74.7951 191.855C98.0166 193.126 122.799 193.353 144.416 186.578" stroke="#394D54" stroke-width="3.4" stroke-linecap="round"/>
<path d="M167.492 175.343C167.492 180.292 163.48 184.305 158.531 184.305C153.581 184.305 149.567 180.292 149.567 175.343C149.567 170.394 153.581 166.38 158.531 166.38C163.48 166.38 167.492 170.394 167.492 175.343Z" fill="#D4EDF1"/>
<path d="M160.855 169.357C160.072 169.809 159.543 170.656 159.543 171.626C159.543 173.073 160.716 174.244 162.163 174.244C163.154 174.244 164.015 173.693 164.461 172.88C164.775 173.638 164.95 174.47 164.95 175.343C164.95 178.887 162.076 181.761 158.531 181.761C154.986 181.761 152.111 178.887 152.111 175.343C152.111 171.797 154.986 168.922 158.531 168.922C159.351 168.922 160.133 169.077 160.855 169.357Z" fill="#394D54"/>
<path d="M0 147.807H416.93C407.852 145.504 388.207 142.394 391.447 130.496C374.94 149.597 335.131 143.897 325.084 134.478C313.896 150.704 248.766 144.537 244.223 131.896C230.197 148.356 186.736 148.356 172.709 131.896C168.165 144.537 103.035 150.704 91.8459 134.478C81.7992 143.897 41.9936 149.597 25.485 130.496C28.7247 142.394 9.08002 145.504 0 147.807Z" fill="#394D54"/>
</g>
<defs>
<clipPath id="clip0_134_14">
<rect width="1000" height="237.705" fill="white"/>
</clipPath>
</defs>
</svg>
